<mxfile host="app.diagrams.net" modified="2023-06-11T04:07:57.383Z" agent="Mozilla/5.0 (Windows NT 6.1; Win64; x64) AppleWebKit/537.36 (KHTML, like Gecko) Chrome/109.0.0.0 Safari/537.36 Edg/109.0.1518.100" etag="H8REuw4inX3evhUp2GuE" version="21.3.8" type="github" pages="2">
  <diagram name="Page-1" id="w3ou2ximmR7FDdTrQUAE">
    <mxGraphModel dx="972" dy="293" grid="0" gridSize="10" guides="1" tooltips="1" connect="1" arrows="1" fold="1" page="0" pageScale="1" pageWidth="850" pageHeight="1100" background="#ffffff" math="0" shadow="0">
      <root>
        <mxCell id="0" />
        <mxCell id="1" parent="0" />
        <mxCell id="W1JwzDyjh-5Lb7JO-28k-3" value="" style="ellipse;whiteSpace=wrap;html=1;aspect=fixed;fillColor=#ffffff;strokeColor=#000000;" parent="1" vertex="1">
          <mxGeometry x="570" y="355" width="80" height="80" as="geometry" />
        </mxCell>
        <mxCell id="W1JwzDyjh-5Lb7JO-28k-4" value="&lt;font color=&quot;#000000&quot; style=&quot;font-size: 8px;&quot;&gt;3.7v lithium polymer battery&lt;/font&gt;" style="text;html=1;strokeColor=none;fillColor=#f9f7ed;align=center;verticalAlign=middle;whiteSpace=wrap;rounded=0;" parent="1" vertex="1">
          <mxGeometry x="583.75" y="367.5" width="52.5" height="32" as="geometry" />
        </mxCell>
        <mxCell id="W1JwzDyjh-5Lb7JO-28k-10" value="" style="rounded=0;whiteSpace=wrap;html=1;rotation=90;strokeColor=#000000;gradientColor=none;fillColor=#FFFFFF;" parent="1" vertex="1">
          <mxGeometry x="283.63" y="351" width="144" height="65" as="geometry" />
        </mxCell>
        <mxCell id="W1JwzDyjh-5Lb7JO-28k-14" style="edgeStyle=orthogonalEdgeStyle;rounded=0;orthogonalLoop=1;jettySize=auto;html=1;exitX=0.5;exitY=1;exitDx=0;exitDy=0;" parent="1" edge="1">
          <mxGeometry relative="1" as="geometry">
            <mxPoint x="455" y="350" as="sourcePoint" />
            <mxPoint x="455" y="350" as="targetPoint" />
          </mxGeometry>
        </mxCell>
        <mxCell id="W1JwzDyjh-5Lb7JO-28k-15" value="&lt;span style=&quot;background-color: rgb(255, 255, 255);&quot;&gt;&lt;br&gt;&lt;/span&gt;" style="rounded=0;whiteSpace=wrap;html=1;fillColor=#f9f7ed;strokeColor=#000000;" parent="1" vertex="1">
          <mxGeometry x="679" y="370" width="80" height="50" as="geometry" />
        </mxCell>
        <mxCell id="W1JwzDyjh-5Lb7JO-28k-19" value="" style="html=1;overflow=block;blockSpacing=1;whiteSpace=wrap;fontSize=13;spacing=3.8;strokeColor=#3a414a;strokeOpacity=100;rounded=1;absoluteArcSize=1;arcSize=9;strokeWidth=0.8;lucidId=OqS5bqNVhKmD;" parent="1" vertex="1">
          <mxGeometry x="1170" y="310" width="90" height="240" as="geometry" />
        </mxCell>
        <mxCell id="W1JwzDyjh-5Lb7JO-28k-20" value="Arduino&#xa;Nano" style="html=1;overflow=block;blockSpacing=1;whiteSpace=wrap;fontSize=11.7;fontColor=#3a414a;spacing=3.8;strokeOpacity=0;fillOpacity=0;rounded=1;absoluteArcSize=1;arcSize=9;fillColor=#ffffff;strokeWidth=0.8;lucidId=nbZ5cKQdmuqg;" parent="1" vertex="1">
          <mxGeometry x="1193" y="373" width="60" height="46" as="geometry" />
        </mxCell>
        <mxCell id="W1JwzDyjh-5Lb7JO-28k-21" value="GND" style="html=1;overflow=block;blockSpacing=1;whiteSpace=wrap;fontSize=6.7;fontColor=#3a414a;align=left;spacing=3.8;verticalAlign=top;strokeColor=none;fillOpacity=0;fillColor=#ffffff;strokeWidth=0;lucidId=scZ56mlb3IZD;" parent="1" vertex="1">
          <mxGeometry x="1178" y="510" width="22" height="15" as="geometry" />
        </mxCell>
        <mxCell id="W1JwzDyjh-5Lb7JO-28k-22" value="5v" style="html=1;overflow=block;blockSpacing=1;whiteSpace=wrap;fontSize=8.3;fontColor=#3a414a;align=left;spacing=3.8;verticalAlign=top;strokeColor=none;fillOpacity=0;fillColor=#ffffff;strokeWidth=0;lucidId=CcZ5YFzEqV34;" parent="1" vertex="1">
          <mxGeometry x="1178" y="488" width="22" height="17" as="geometry" />
        </mxCell>
        <mxCell id="W1JwzDyjh-5Lb7JO-28k-23" value="D2" style="html=1;overflow=block;blockSpacing=1;whiteSpace=wrap;fontSize=8.3;fontColor=#3a414a;align=left;spacing=3.8;verticalAlign=top;strokeColor=none;fillOpacity=0;fillColor=#ffffff;strokeWidth=0;lucidId=dv25vBCfU8yK;" parent="1" vertex="1">
          <mxGeometry x="1245" y="474" width="22" height="17" as="geometry" />
        </mxCell>
        <mxCell id="W1JwzDyjh-5Lb7JO-28k-24" value="D3" style="html=1;overflow=block;blockSpacing=1;whiteSpace=wrap;fontSize=8.3;fontColor=#3a414a;align=left;spacing=3.8;verticalAlign=top;strokeColor=none;fillOpacity=0;fillColor=#ffffff;strokeWidth=0;lucidId=mv25soP66xno;" parent="1" vertex="1">
          <mxGeometry x="1245" y="455" width="22" height="17" as="geometry" />
        </mxCell>
        <mxCell id="W1JwzDyjh-5Lb7JO-28k-25" value="D4" style="html=1;overflow=block;blockSpacing=1;whiteSpace=wrap;fontSize=8.3;fontColor=#3a414a;align=left;spacing=3.8;verticalAlign=top;strokeColor=none;fillOpacity=0;fillColor=#ffffff;strokeWidth=0;lucidId=tv25OOamlNCk;" parent="1" vertex="1">
          <mxGeometry x="1245" y="438" width="22" height="17" as="geometry" />
        </mxCell>
        <mxCell id="W1JwzDyjh-5Lb7JO-28k-26" value="D8" style="html=1;overflow=block;blockSpacing=1;whiteSpace=wrap;fontSize=8.3;fontColor=#3a414a;align=left;spacing=3.8;verticalAlign=top;strokeColor=none;fillOpacity=0;fillColor=#ffffff;strokeWidth=0;lucidId=Xv25m2dBFKM0;" parent="1" vertex="1">
          <mxGeometry x="1245" y="389" width="22" height="17" as="geometry" />
        </mxCell>
        <mxCell id="W1JwzDyjh-5Lb7JO-28k-27" value="D9" style="html=1;overflow=block;blockSpacing=1;whiteSpace=wrap;fontSize=8.3;fontColor=#3a414a;align=left;spacing=3.8;verticalAlign=top;strokeColor=none;fillOpacity=0;fillColor=#ffffff;strokeWidth=0;lucidId=4v25DSY~jh0V;" parent="1" vertex="1">
          <mxGeometry x="1245" y="373" width="22" height="17" as="geometry" />
        </mxCell>
        <mxCell id="W1JwzDyjh-5Lb7JO-28k-35" value="&lt;p style=&quot;line-height: 40%;&quot;&gt;&lt;font style=&quot;font-size: 8px;&quot;&gt;TP4056&lt;br&gt;battery&amp;nbsp;&lt;br&gt;charging module&lt;/font&gt;&lt;/p&gt;" style="text;html=1;strokeColor=none;fillColor=none;align=center;verticalAlign=middle;whiteSpace=wrap;rounded=0;" parent="1" vertex="1">
          <mxGeometry x="685.5" y="378" width="67" height="19" as="geometry" />
        </mxCell>
        <mxCell id="W1JwzDyjh-5Lb7JO-28k-36" style="edgeStyle=orthogonalEdgeStyle;rounded=0;orthogonalLoop=1;jettySize=auto;html=1;exitX=0.5;exitY=1;exitDx=0;exitDy=0;" parent="1" source="W1JwzDyjh-5Lb7JO-28k-35" target="W1JwzDyjh-5Lb7JO-28k-35" edge="1">
          <mxGeometry relative="1" as="geometry" />
        </mxCell>
        <mxCell id="W1JwzDyjh-5Lb7JO-28k-37" value="&lt;font style=&quot;font-size: 6px;&quot;&gt;B+&lt;/font&gt;" style="text;html=1;strokeColor=none;fillColor=none;align=center;verticalAlign=middle;whiteSpace=wrap;rounded=0;" parent="1" vertex="1">
          <mxGeometry x="679" y="379" width="16" height="5" as="geometry" />
        </mxCell>
        <mxCell id="W1JwzDyjh-5Lb7JO-28k-38" value="&lt;font style=&quot;font-size: 6px;&quot;&gt;B-&lt;/font&gt;" style="text;html=1;strokeColor=none;fillColor=none;align=center;verticalAlign=middle;whiteSpace=wrap;rounded=0;" parent="1" vertex="1">
          <mxGeometry x="681" y="401.75" width="12" height="6" as="geometry" />
        </mxCell>
        <mxCell id="W1JwzDyjh-5Lb7JO-28k-39" value="&lt;font style=&quot;font-size: 6px;&quot;&gt;OUT+&lt;/font&gt;" style="text;html=1;strokeColor=none;fillColor=none;align=center;verticalAlign=middle;whiteSpace=wrap;rounded=0;" parent="1" vertex="1">
          <mxGeometry x="681" y="368" width="16" height="11" as="geometry" />
        </mxCell>
        <mxCell id="wtUchSvOxxWVNv_H8Eki-14" style="edgeStyle=orthogonalEdgeStyle;rounded=0;orthogonalLoop=1;jettySize=auto;html=1;exitX=0;exitY=0.75;exitDx=0;exitDy=0;entryX=0.7;entryY=1;entryDx=0;entryDy=0;entryPerimeter=0;endArrow=none;endFill=0;" edge="1" parent="1" source="W1JwzDyjh-5Lb7JO-28k-40" target="oKN5VsouLlYCjmqSgxn1-2">
          <mxGeometry relative="1" as="geometry">
            <Array as="points">
              <mxPoint x="673" y="415" />
              <mxPoint x="673" y="453" />
              <mxPoint x="557" y="453" />
              <mxPoint x="557" y="520" />
              <mxPoint x="426" y="520" />
            </Array>
          </mxGeometry>
        </mxCell>
        <mxCell id="W1JwzDyjh-5Lb7JO-28k-40" value="&lt;font style=&quot;font-size: 6px;&quot;&gt;OUT-&lt;/font&gt;" style="text;html=1;strokeColor=none;fillColor=none;align=center;verticalAlign=middle;whiteSpace=wrap;rounded=0;" parent="1" vertex="1">
          <mxGeometry x="679" y="410" width="19" height="6" as="geometry" />
        </mxCell>
        <mxCell id="W1JwzDyjh-5Lb7JO-28k-43" value="&lt;font style=&quot;font-size: 6px;&quot;&gt;IN+&lt;/font&gt;" style="text;html=1;strokeColor=none;fillColor=none;align=center;verticalAlign=middle;whiteSpace=wrap;rounded=0;" parent="1" vertex="1">
          <mxGeometry x="71" y="267" width="60" height="30" as="geometry" />
        </mxCell>
        <mxCell id="W1JwzDyjh-5Lb7JO-28k-44" value="&lt;font style=&quot;font-size: 6px;&quot;&gt;IN-&lt;/font&gt;" style="text;html=1;strokeColor=none;fillColor=none;align=center;verticalAlign=middle;whiteSpace=wrap;rounded=0;" parent="1" vertex="1">
          <mxGeometry x="71" y="300" width="60" height="30" as="geometry" />
        </mxCell>
        <mxCell id="W1JwzDyjh-5Lb7JO-28k-46" value="-" style="text;html=1;strokeColor=none;fillColor=none;align=center;verticalAlign=middle;whiteSpace=wrap;rounded=0;" parent="1" vertex="1">
          <mxGeometry x="618" y="417.5" width="12.37" height="9" as="geometry" />
        </mxCell>
        <mxCell id="W1JwzDyjh-5Lb7JO-28k-49" value="+" style="text;html=1;strokeColor=none;fillColor=none;align=center;verticalAlign=middle;whiteSpace=wrap;rounded=0;" parent="1" vertex="1">
          <mxGeometry x="588" y="416" width="12.37" height="9" as="geometry" />
        </mxCell>
        <mxCell id="oKN5VsouLlYCjmqSgxn1-16" style="edgeStyle=orthogonalEdgeStyle;rounded=0;orthogonalLoop=1;jettySize=auto;html=1;exitX=0;exitY=0.5;exitDx=0;exitDy=0;entryX=1;entryY=0.5;entryDx=0;entryDy=0;entryPerimeter=0;strokeColor=#FF0000;endArrow=none;endFill=0;" edge="1" parent="1" source="W1JwzDyjh-5Lb7JO-28k-61" target="oKN5VsouLlYCjmqSgxn1-9">
          <mxGeometry relative="1" as="geometry" />
        </mxCell>
        <mxCell id="W1JwzDyjh-5Lb7JO-28k-61" value="" style="html=1;shape=mxgraph.electrical.electro-mechanical.twoWaySwitch;aspect=fixed;elSwitchState=2;" parent="1" vertex="1">
          <mxGeometry x="131" y="254.32" width="36.58" height="12.68" as="geometry" />
        </mxCell>
        <mxCell id="W1JwzDyjh-5Lb7JO-28k-62" value="" style="rounded=0;whiteSpace=wrap;html=1;" parent="1" vertex="1">
          <mxGeometry x="471" y="397" width="63" height="53" as="geometry" />
        </mxCell>
        <mxCell id="W1JwzDyjh-5Lb7JO-28k-63" value="&lt;p style=&quot;line-height: 60%;&quot;&gt;&lt;font style=&quot;font-size: 8px;&quot;&gt;SIM800L GSM&lt;/font&gt;&lt;/p&gt;" style="text;html=1;strokeColor=none;fillColor=none;align=center;verticalAlign=middle;whiteSpace=wrap;rounded=0;" parent="1" vertex="1">
          <mxGeometry x="483.5" y="406" width="32" height="16" as="geometry" />
        </mxCell>
        <mxCell id="W1JwzDyjh-5Lb7JO-28k-65" value="&lt;font style=&quot;font-size: 6px;&quot;&gt;VCC&lt;/font&gt;" style="text;html=1;strokeColor=none;fillColor=none;align=center;verticalAlign=middle;whiteSpace=wrap;rounded=0;" parent="1" vertex="1">
          <mxGeometry x="475" y="438" width="14" height="7" as="geometry" />
        </mxCell>
        <mxCell id="W1JwzDyjh-5Lb7JO-28k-66" value="&lt;font style=&quot;font-size: 6px;&quot;&gt;Rx&lt;/font&gt;" style="text;html=1;strokeColor=none;fillColor=none;align=center;verticalAlign=middle;whiteSpace=wrap;rounded=0;" parent="1" vertex="1">
          <mxGeometry x="489" y="438" width="14" height="7" as="geometry" />
        </mxCell>
        <mxCell id="W1JwzDyjh-5Lb7JO-28k-67" value="&lt;font style=&quot;font-size: 6px;&quot;&gt;Tx&lt;/font&gt;" style="text;html=1;strokeColor=none;fillColor=none;align=center;verticalAlign=middle;whiteSpace=wrap;rounded=0;" parent="1" vertex="1">
          <mxGeometry x="501.5" y="438" width="14" height="7" as="geometry" />
        </mxCell>
        <mxCell id="wtUchSvOxxWVNv_H8Eki-8" style="edgeStyle=orthogonalEdgeStyle;rounded=0;orthogonalLoop=1;jettySize=auto;html=1;entryX=0.7;entryY=1;entryDx=0;entryDy=0;entryPerimeter=0;endArrow=none;endFill=0;" edge="1" parent="1" source="W1JwzDyjh-5Lb7JO-28k-68" target="oKN5VsouLlYCjmqSgxn1-2">
          <mxGeometry relative="1" as="geometry">
            <Array as="points">
              <mxPoint x="523" y="520" />
              <mxPoint x="426" y="520" />
            </Array>
          </mxGeometry>
        </mxCell>
        <mxCell id="W1JwzDyjh-5Lb7JO-28k-68" value="&lt;font style=&quot;font-size: 6px;&quot;&gt;GND&lt;/font&gt;" style="text;html=1;strokeColor=none;fillColor=none;align=center;verticalAlign=middle;whiteSpace=wrap;rounded=0;" parent="1" vertex="1">
          <mxGeometry x="515.5" y="438" width="14" height="7" as="geometry" />
        </mxCell>
        <mxCell id="W1JwzDyjh-5Lb7JO-28k-80" value="&lt;p style=&quot;line-height: 60%;&quot;&gt;&lt;font style=&quot;font-size: 8px;&quot;&gt;Arduino Nano&lt;/font&gt;&lt;/p&gt;" style="text;html=1;strokeColor=none;fillColor=none;align=center;verticalAlign=middle;whiteSpace=wrap;rounded=0;" parent="1" vertex="1">
          <mxGeometry x="341" y="372.25" width="25.5" height="22" as="geometry" />
        </mxCell>
        <mxCell id="W1JwzDyjh-5Lb7JO-28k-81" value="&lt;font style=&quot;font-size: 6px;&quot;&gt;5v&lt;/font&gt;" style="text;html=1;strokeColor=none;fillColor=none;align=center;verticalAlign=middle;whiteSpace=wrap;rounded=0;" parent="1" vertex="1">
          <mxGeometry x="326.5" y="419" width="10" height="6" as="geometry" />
        </mxCell>
        <mxCell id="wtUchSvOxxWVNv_H8Eki-9" style="edgeStyle=orthogonalEdgeStyle;rounded=0;orthogonalLoop=1;jettySize=auto;html=1;exitX=0;exitY=1;exitDx=0;exitDy=0;entryX=0.7;entryY=1;entryDx=0;entryDy=0;entryPerimeter=0;endArrow=none;endFill=0;" edge="1" parent="1" source="W1JwzDyjh-5Lb7JO-28k-82" target="oKN5VsouLlYCjmqSgxn1-2">
          <mxGeometry relative="1" as="geometry">
            <Array as="points">
              <mxPoint x="313" y="441" />
              <mxPoint x="313" y="520" />
              <mxPoint x="426" y="520" />
            </Array>
          </mxGeometry>
        </mxCell>
        <mxCell id="W1JwzDyjh-5Lb7JO-28k-82" value="&lt;font style=&quot;font-size: 6px;&quot;&gt;GND&lt;/font&gt;" style="text;html=1;strokeColor=none;fillColor=none;align=center;verticalAlign=middle;whiteSpace=wrap;rounded=0;" parent="1" vertex="1">
          <mxGeometry x="326.5" y="435" width="14.5" height="6" as="geometry" />
        </mxCell>
        <mxCell id="W1JwzDyjh-5Lb7JO-28k-85" value="&lt;font style=&quot;font-size: 6px;&quot;&gt;D2&lt;/font&gt;" style="text;html=1;strokeColor=none;fillColor=none;align=center;verticalAlign=middle;whiteSpace=wrap;rounded=0;" parent="1" vertex="1">
          <mxGeometry x="374" y="413" width="10" height="6" as="geometry" />
        </mxCell>
        <mxCell id="W1JwzDyjh-5Lb7JO-28k-86" value="&lt;font style=&quot;font-size: 6px;&quot;&gt;D3&lt;/font&gt;" style="text;html=1;strokeColor=none;fillColor=none;align=center;verticalAlign=middle;whiteSpace=wrap;rounded=0;" parent="1" vertex="1">
          <mxGeometry x="374" y="405.25" width="10" height="6" as="geometry" />
        </mxCell>
        <mxCell id="W1JwzDyjh-5Lb7JO-28k-87" value="&lt;font style=&quot;font-size: 6px;&quot;&gt;D4&lt;/font&gt;" style="text;html=1;strokeColor=none;fillColor=none;align=center;verticalAlign=middle;whiteSpace=wrap;rounded=0;" parent="1" vertex="1">
          <mxGeometry x="374" y="394.5" width="10" height="6" as="geometry" />
        </mxCell>
        <mxCell id="W1JwzDyjh-5Lb7JO-28k-88" value="&lt;font style=&quot;font-size: 6px;&quot;&gt;D8&lt;/font&gt;" style="text;html=1;strokeColor=none;fillColor=none;align=center;verticalAlign=middle;whiteSpace=wrap;rounded=0;" parent="1" vertex="1">
          <mxGeometry x="374" y="359" width="10" height="6" as="geometry" />
        </mxCell>
        <mxCell id="W1JwzDyjh-5Lb7JO-28k-89" value="&lt;font style=&quot;font-size: 6px;&quot;&gt;D9&lt;/font&gt;" style="text;html=1;strokeColor=none;fillColor=none;align=center;verticalAlign=middle;whiteSpace=wrap;rounded=0;" parent="1" vertex="1">
          <mxGeometry x="374" y="349.5" width="10" height="6" as="geometry" />
        </mxCell>
        <mxCell id="W1JwzDyjh-5Lb7JO-28k-104" value="" style="rounded=0;whiteSpace=wrap;html=1;" parent="1" vertex="1">
          <mxGeometry x="465" y="316" width="69" height="53" as="geometry" />
        </mxCell>
        <mxCell id="W1JwzDyjh-5Lb7JO-28k-105" value="&lt;p style=&quot;line-height: 70%;&quot;&gt;&lt;font style=&quot;font-size: 8px;&quot;&gt;NEO-6m GPS&amp;nbsp;&lt;/font&gt;&lt;/p&gt;" style="text;html=1;strokeColor=none;fillColor=none;align=center;verticalAlign=middle;whiteSpace=wrap;rounded=0;" parent="1" vertex="1">
          <mxGeometry x="480" y="322" width="39" height="17" as="geometry" />
        </mxCell>
        <mxCell id="W1JwzDyjh-5Lb7JO-28k-109" value="&lt;font style=&quot;font-size: 6px;&quot;&gt;Rx&lt;/font&gt;" style="text;html=1;strokeColor=none;fillColor=none;align=center;verticalAlign=middle;whiteSpace=wrap;rounded=0;" parent="1" vertex="1">
          <mxGeometry x="489" y="358" width="9" height="6" as="geometry" />
        </mxCell>
        <mxCell id="W1JwzDyjh-5Lb7JO-28k-111" value="&lt;font style=&quot;font-size: 6px;&quot;&gt;Tx&lt;/font&gt;" style="text;html=1;strokeColor=none;fillColor=none;align=center;verticalAlign=middle;whiteSpace=wrap;rounded=0;" parent="1" vertex="1">
          <mxGeometry x="501.5" y="358" width="9" height="6" as="geometry" />
        </mxCell>
        <mxCell id="wtUchSvOxxWVNv_H8Eki-7" style="edgeStyle=orthogonalEdgeStyle;rounded=0;orthogonalLoop=1;jettySize=auto;html=1;entryX=0.7;entryY=1;entryDx=0;entryDy=0;entryPerimeter=0;endArrow=none;endFill=0;" edge="1" parent="1" source="W1JwzDyjh-5Lb7JO-28k-114" target="oKN5VsouLlYCjmqSgxn1-2">
          <mxGeometry relative="1" as="geometry">
            <Array as="points">
              <mxPoint x="478" y="388" />
              <mxPoint x="456" y="388" />
              <mxPoint x="456" y="520" />
              <mxPoint x="426" y="520" />
            </Array>
          </mxGeometry>
        </mxCell>
        <mxCell id="W1JwzDyjh-5Lb7JO-28k-114" value="&lt;font style=&quot;font-size: 6px;&quot;&gt;GND&lt;/font&gt;" style="text;html=1;strokeColor=none;fillColor=none;align=center;verticalAlign=middle;whiteSpace=wrap;rounded=0;" parent="1" vertex="1">
          <mxGeometry x="469.5" y="357" width="14" height="7" as="geometry" />
        </mxCell>
        <mxCell id="W1JwzDyjh-5Lb7JO-28k-115" value="&lt;font style=&quot;font-size: 6px;&quot;&gt;VCC&lt;/font&gt;" style="text;html=1;strokeColor=none;fillColor=none;align=center;verticalAlign=middle;whiteSpace=wrap;rounded=0;" parent="1" vertex="1">
          <mxGeometry x="515.5" y="358" width="14" height="7" as="geometry" />
        </mxCell>
        <mxCell id="W1JwzDyjh-5Lb7JO-28k-126" value="" style="shape=or;whiteSpace=wrap;html=1;rotation=-90;" parent="1" vertex="1">
          <mxGeometry x="88" y="396.5" width="10.5" height="16.5" as="geometry" />
        </mxCell>
        <mxCell id="RSaB5xHmMBpHj-FJSOeQ-9" style="edgeStyle=orthogonalEdgeStyle;rounded=0;orthogonalLoop=1;jettySize=auto;html=1;exitX=0;exitY=0.75;exitDx=0;exitDy=0;exitPerimeter=0;endArrow=none;endFill=0;" edge="1" parent="1" source="W1JwzDyjh-5Lb7JO-28k-126">
          <mxGeometry relative="1" as="geometry">
            <mxPoint x="129.99293374115564" y="414.08750368514154" as="targetPoint" />
            <Array as="points">
              <mxPoint x="97" y="418" />
              <mxPoint x="119" y="418" />
              <mxPoint x="119" y="414" />
              <mxPoint x="131" y="414" />
            </Array>
          </mxGeometry>
        </mxCell>
        <mxCell id="W1JwzDyjh-5Lb7JO-28k-140" style="edgeStyle=orthogonalEdgeStyle;rounded=0;orthogonalLoop=1;jettySize=auto;html=1;exitX=0;exitY=0.25;exitDx=0;exitDy=0;strokeColor=#FF0000;endArrow=none;endFill=0;" parent="1" source="W1JwzDyjh-5Lb7JO-28k-131" edge="1">
          <mxGeometry relative="1" as="geometry">
            <mxPoint x="-39" y="300" as="targetPoint" />
            <Array as="points">
              <mxPoint x="-100" y="457" />
              <mxPoint x="-100" y="441" />
              <mxPoint x="-60" y="441" />
            </Array>
          </mxGeometry>
        </mxCell>
        <mxCell id="W1JwzDyjh-5Lb7JO-28k-131" value="" style="rounded=0;whiteSpace=wrap;html=1;" parent="1" vertex="1">
          <mxGeometry x="-90" y="449" width="54" height="31" as="geometry" />
        </mxCell>
        <mxCell id="W1JwzDyjh-5Lb7JO-28k-133" value="&lt;p style=&quot;line-height: 32%;&quot;&gt;&lt;font style=&quot;font-size: 5px;&quot;&gt;XL6009 DC-Dc Step-up converter module&lt;/font&gt;&lt;/p&gt;" style="text;html=1;strokeColor=none;fillColor=none;align=center;verticalAlign=middle;whiteSpace=wrap;rounded=0;" parent="1" vertex="1">
          <mxGeometry x="-79.5" y="460.75" width="26.5" height="8.25" as="geometry" />
        </mxCell>
        <mxCell id="W1JwzDyjh-5Lb7JO-28k-134" value="&lt;font style=&quot;font-size: 5px;&quot;&gt;OUT+&lt;/font&gt;" style="text;html=1;strokeColor=none;fillColor=none;align=center;verticalAlign=middle;whiteSpace=wrap;rounded=0;" parent="1" vertex="1">
          <mxGeometry x="-53" y="449" width="17" height="7" as="geometry" />
        </mxCell>
        <mxCell id="W1JwzDyjh-5Lb7JO-28k-137" value="&lt;font style=&quot;font-size: 5px;&quot;&gt;&lt;font style=&quot;&quot;&gt;OUT&lt;/font&gt;-&lt;/font&gt;" style="text;html=1;strokeColor=none;fillColor=none;align=center;verticalAlign=middle;whiteSpace=wrap;rounded=0;" parent="1" vertex="1">
          <mxGeometry x="-49.5" y="469" width="10" height="6" as="geometry" />
        </mxCell>
        <mxCell id="W1JwzDyjh-5Lb7JO-28k-138" value="&lt;font style=&quot;font-size: 5px;&quot;&gt;IN+&lt;/font&gt;" style="text;html=1;strokeColor=none;fillColor=none;align=center;verticalAlign=middle;whiteSpace=wrap;rounded=0;" parent="1" vertex="1">
          <mxGeometry x="-88" y="450" width="9" height="5" as="geometry" />
        </mxCell>
        <mxCell id="W1JwzDyjh-5Lb7JO-28k-139" value="&lt;font style=&quot;font-size: 5px;&quot;&gt;IN-&lt;/font&gt;" style="text;html=1;strokeColor=none;fillColor=none;align=center;verticalAlign=middle;whiteSpace=wrap;rounded=0;" parent="1" vertex="1">
          <mxGeometry x="-89" y="471" width="10" height="3" as="geometry" />
        </mxCell>
        <mxCell id="W1JwzDyjh-5Lb7JO-28k-166" value="&lt;font style=&quot;font-size: 3px;&quot;&gt;buzzer&lt;/font&gt;" style="text;html=1;strokeColor=none;fillColor=none;align=center;verticalAlign=middle;whiteSpace=wrap;rounded=0;" parent="1" vertex="1">
          <mxGeometry x="81.75" y="394.25" width="23" height="11" as="geometry" />
        </mxCell>
        <mxCell id="oKN5VsouLlYCjmqSgxn1-2" value="" style="verticalLabelPosition=bottom;shadow=0;dashed=0;align=center;html=1;verticalAlign=top;shape=mxgraph.electrical.transistors.npn_transistor_1;" vertex="1" parent="1">
          <mxGeometry x="404" y="478" width="37.31" height="22" as="geometry" />
        </mxCell>
        <mxCell id="oKN5VsouLlYCjmqSgxn1-15" style="edgeStyle=orthogonalEdgeStyle;rounded=0;orthogonalLoop=1;jettySize=auto;html=1;exitX=0.5;exitY=1;exitDx=0;exitDy=0;exitPerimeter=0;endArrow=none;endFill=0;strokeColor=#808080;" edge="1" parent="1" source="oKN5VsouLlYCjmqSgxn1-4">
          <mxGeometry relative="1" as="geometry">
            <mxPoint x="81.70653969169462" y="225.52880203963923" as="targetPoint" />
            <Array as="points">
              <mxPoint x="69" y="226" />
            </Array>
          </mxGeometry>
        </mxCell>
        <mxCell id="oKN5VsouLlYCjmqSgxn1-4" value="" style="pointerEvents=1;verticalLabelPosition=bottom;shadow=0;dashed=0;align=center;html=1;verticalAlign=top;shape=mxgraph.electrical.resistors.trimmer_pot_1;" vertex="1" parent="1">
          <mxGeometry x="57.59" y="200" width="22.5" height="9" as="geometry" />
        </mxCell>
        <mxCell id="RSaB5xHmMBpHj-FJSOeQ-5" style="edgeStyle=orthogonalEdgeStyle;rounded=0;orthogonalLoop=1;jettySize=auto;html=1;exitX=1;exitY=0.5;exitDx=0;exitDy=0;exitPerimeter=0;endArrow=none;endFill=0;" edge="1" parent="1">
          <mxGeometry relative="1" as="geometry">
            <mxPoint x="47" y="295.2" as="targetPoint" />
            <mxPoint x="110.08999999999992" y="436.5" as="sourcePoint" />
            <Array as="points">
              <mxPoint x="130" y="437" />
              <mxPoint x="130" y="332" />
              <mxPoint x="47" y="332" />
            </Array>
          </mxGeometry>
        </mxCell>
        <mxCell id="oKN5VsouLlYCjmqSgxn1-9" value="" style="pointerEvents=1;verticalLabelPosition=bottom;shadow=0;dashed=0;align=center;html=1;verticalAlign=top;shape=mxgraph.electrical.resistors.resistor_1;" vertex="1" parent="1">
          <mxGeometry x="81.75" y="212" width="17.81" height="3" as="geometry" />
        </mxCell>
        <mxCell id="RSaB5xHmMBpHj-FJSOeQ-11" value="&lt;font style=&quot;font-size: 4px;&quot;&gt;R 4.7k Ohm&lt;/font&gt;" style="text;strokeColor=none;fillColor=none;html=1;fontSize=24;fontStyle=1;verticalAlign=middle;align=center;" vertex="1" parent="1">
          <mxGeometry x="81.22" y="198" width="18.34" height="8" as="geometry" />
        </mxCell>
      </root>
    </mxGraphModel>
  </diagram>
  <diagram id="cIE382wmbr7k1JI1kIFw" name="Page-2">
    <mxGraphModel dx="1671" dy="732" grid="1" gridSize="10" guides="1" tooltips="1" connect="1" arrows="1" fold="1" page="1" pageScale="1" pageWidth="850" pageHeight="1100" math="0" shadow="0">
      <root>
        <mxCell id="0" />
        <mxCell id="1" parent="0" />
      </root>
    </mxGraphModel>
  </diagram>
</mxfile>
